<svg id="OutlineExpandedColored" enable-background="new 0 0 64 64" height="512" viewBox="0 0 64 64" width="512" xmlns="http://www.w3.org/2000/svg"><circle cx="53" cy="38" fill="#f4b34a" r="6"/><path d="m43 61h20v-7c0-5.523-4.477-10-10-10-5.523 0-10 4.477-10 10z" fill="#f4b34a"/><path d="m1 61h20v-7c0-5.523-4.477-10-10-10-5.523 0-10 4.477-10 10z" fill="#76cc7a"/><circle cx="11" cy="38" fill="#76cc7a" r="6"/><path d="m39 61h-20v-7c0-5.523 4.477-10 10-10 5.523 0 10 4.477 10 10z" fill="#4ac3ed"/><circle cx="29" cy="38" fill="#4ac3ed" r="6"/><path d="m39 20h-4l-6 6v-6h-6v-17h16z" fill="#eae8e5"/><path d="m61 20h-4l-4 7-4-7h-4v-17h16z" fill="#f4b34a"/><path d="m19 20h-8v6l-5-6h-3v-17h16z" fill="#76cc7a"/><path d="m29 32c-2.611 0-4.827 1.671-5.651 4h-4.349v2h16c0-3.314-2.686-6-6-6z" fill="#304b68"/><g fill="#153049"><path d="m56.99 43.75c1.82-1.27 3.01-3.37 3.01-5.75 0-3.86-3.14-7-7-7s-7 3.14-7 7c0 2.38 1.19 4.48 3.01 5.75-4.1 1.6-7.01 5.59-7.01 10.25v7c0 .55.45 1 1 1h20c.55 0 1-.45 1-1v-7c0-4.66-2.91-8.65-7.01-10.25zm-6.11-1.22c1.27-.68 2.12-2 2.12-3.53h-2c0 1.1-.9 2-2 2-.63-.83-1-1.87-1-3 0-2.76 2.24-5 5-5s5 2.24 5 5-2.24 5-5 5c-.76 0-1.48-.17-2.12-.47zm11.12 17.47h-18v-6c0-4.96 4.04-9 9-9s9 4.04 9 9z"/><path d="m32.99 43.75c1.82-1.27 3.01-3.37 3.01-5.75 0-3.86-3.14-7-7-7-3.17 0-5.85 2.11-6.71 5h-3.29v2h3c0 2.38 1.19 4.48 3.01 5.75-2.04.79-3.78 2.18-5.02 3.94-1.24-1.78-3-3.15-5.01-3.93 1.83-1.27 3.02-3.38 3.02-5.76 0-3.86-3.14-7-7-7s-7 3.14-7 7c0 2.38 1.19 4.48 3.01 5.75-1.41.54-2.69 1.37-3.79 2.47-2.08 2.08-3.22 4.84-3.22 7.78v7c0 .55.45 1 1 1h38c.55 0 1-.45 1-1v-7c0-4.66-2.91-8.65-7.01-10.25zm-26.99-5.75c0-2.76 2.24-5 5-5s5 2.24 5 5c0 1.13-.37 2.17-1 3-1.1 0-2-.9-2-2h-2c0 1.53.85 2.85 2.12 3.53-.64.3-1.36.47-2.12.47-2.76 0-5-2.24-5-5zm12 16v6h-16v-6c0-2.4.94-4.66 2.64-6.36s3.96-2.64 6.36-2.64c3.31 0 6.3 1.78 7.88 4.67-.56 1.33-.88 2.79-.88 4.33zm11-21c2.05 0 3.81 1.24 4.59 3h-9.18c.78-1.76 2.54-3 4.59-3zm-4 8c-.63-.83-1-1.87-1-3h10c0 2.76-2.24 5-5 5-.76 0-1.48-.17-2.12-.47 1.27-.68 2.12-2 2.12-3.53h-2c0 1.1-.9 2-2 2zm13 19h-18v-6c0-4.96 4.04-9 9-9s9 4.04 9 9z"/><path d="m52 47h2v2h-2z"/><path d="m52 51h2v2h-2z"/><path d="m13 47v2h-1v6h-2v-6h-1v-2z"/><path d="m32 13h-2v-2c0-.459.312-.858.757-.97l3.243-.811v-1.219h-6v1h-2v-2c0-.553.448-1 1-1h8c.552 0 1 .447 1 1v3c0 .459-.312.858-.757.97l-3.243.811z"/><path d="m30 15h2v2h-2z"/><path d="m29 27c-.129 0-.259-.024-.383-.076-.373-.154-.617-.52-.617-.924v-5h-5c-.552 0-1-.447-1-1v-17c0-.553.448-1 1-1h16c.552 0 1 .447 1 1v17c0 .553-.448 1-1 1h-3.586l-5.707 5.707c-.191.191-.447.293-.707.293zm-5-8h5c.552 0 1 .447 1 1v3.586l4.293-4.293c.187-.188.442-.293.707-.293h3v-15h-14z"/><path d="m53 28c-.359 0-.69-.192-.868-.504l-3.712-6.496h-3.42c-.552 0-1-.447-1-1v-17c0-.553.448-1 1-1h16c.552 0 1 .447 1 1v17c0 .553-.448 1-1 1h-3.42l-3.712 6.496c-.178.312-.509.504-.868.504zm-7-9h3c.359 0 .69.192.868.504l3.132 5.48 3.132-5.48c.178-.312.509-.504.868-.504h3v-15h-14z"/><path d="m11 27c-.291 0-.574-.127-.768-.359l-4.7-5.641h-2.532c-.552 0-1-.447-1-1v-17c0-.553.448-1 1-1h16c.552 0 1 .447 1 1v17c0 .553-.448 1-1 1h-7v5c0 .421-.264.797-.66.94-.111.04-.226.06-.34.06zm-7-8h2c.297 0 .578.132.768.359l3.232 3.879v-3.238c0-.553.448-1 1-1h7v-15h-14z"/><path d="m9 16c-.256 0-.512-.098-.707-.293l-3-3 1.414-1.414 2.293 2.293 5.293-5.293 1.414 1.414-6 6c-.195.195-.451.293-.707.293z"/><path d="m49 8h2v2h-2z"/><path d="m55 8h2v2h-2z"/><path d="m53 16c-2.206 0-4-1.794-4-4h2c0 1.103.897 2 2 2s2-.897 2-2h2c0 2.206-1.794 4-4 4z"/></g></svg>