<?xml version="1.0" encoding="utf-8"?>
<!-- Generator: Adobe Illustrator 24.2.0, SVG Export Plug-In . SVG Version: 6.00 Build 0)  -->
<svg version="1.1" id="f6c00235-76cc-41ae-84b2-bfc054d83f77"
	 xmlns="http://www.w3.org/2000/svg" xmlns:xlink="http://www.w3.org/1999/xlink" x="0px" y="0px" viewBox="0 0 888 613.9"
	 style="enable-background:new 0 0 888 613.9;" xml:space="preserve">
<style type="text/css">
	.st0{fill:#E6E6E6;}
	.st1{fill:#FFFFFF;}
	.st2{fill:#3F3D56;}
	.st3{fill:#E52528;}
	.st4{fill:#F2F2F2;}
	.st5{fill:#A0616A;}
	.st6{fill:#2F2E41;}
</style>
<path class="st0" d="M119.3,442.8l-11.4-18.5c3.7-9.6,7.9-19,12.7-28.1l7.5,6.3l-5.8-9.4c6-11.2,10.6-18.2,10.6-18.2
	s22.9,37.7,30,77.3l-15.6,23.1l17-13.2c0.5,4.6,0.7,9.2,0.6,13.9c-0.9,46.7-17,84.3-35.8,83.9s-33.3-38.5-32.4-85.3
	c0.3-14.5,3.9-29.6,8.7-43.5L119.3,442.8z"/>
<path class="st0" d="M67.7,463.4l-19.3-9.9c-1.8-10.1-3-20.3-3.7-30.6l9.7,1.5l-9.9-5.1c-0.7-12.7-0.3-21.1-0.3-21.1
	s39.1,20.5,65.6,50.7l-1.4,27.8l7.7-20.1c2.8,3.7,5.4,7.5,7.7,11.5c23.3,40.5,29,80.9,12.7,90.3s-48.4-15.8-71.8-56.3
	c-7.2-12.5-12-27.3-15.1-41.7L67.7,463.4z"/>
<path class="st0" d="M164.6,612.8c-22.3,1.4-46.5-0.1-72.3,0v-59.1c22.7,3.5,47,3.2,72.3,0V612.8z"/>
<polygon class="st0" points="689.2,342.7 453,380.7 452,151.1 688.2,0 "/>
<polygon class="st1" points="667.2,308.6 463,352.7 463,160.5 667.2,49.7 "/>
<polygon class="st2" points="647.2,132.5 475,209.6 475,182.6 647.2,97.5 "/>
<polygon class="st3" points="647.2,204.6 475,265.3 475,238.6 647.2,170 "/>
<path class="st0" d="M541.5,171.1c0.1-0.3,0.4-0.6,0.8-0.5c0.2,0.1,0.4,0.2,0.5,0.4l2.8,8.8l3.3,10.5c0.1,0.3-0.1,0.7-0.4,0.8
	l-6.5,2.7l-5.7,2.4c-0.3,0.1-0.7,0-0.8-0.3c-0.1-0.1-0.1-0.3,0-0.4l3.1-12.6L541.5,171.1z"/>
<path class="st0" d="M531.2,236.6c0.1-0.6,0.7-0.9,1.3-0.8c0.4,0.1,0.6,0.4,0.8,0.7l2.3,7.4l3.2,10.2c0.2,0.5-0.1,1.1-0.6,1.3
	l-6.1,2.5l-4.9,2c-0.5,0.2-1.2,0-1.4-0.6c-0.1-0.2-0.1-0.4-0.1-0.7l2.9-11.8L531.2,236.6z"/>
<polygon class="st4" points="647.2,276.6 475,321 475,292.6 647.2,240 "/>
<path class="st2" d="M643.2,152c0,6-2.7,12-6,13.4c-3.3,1.3-5.9-2.4-5.9-8.3s2.6-11.9,5.9-13.3C640.5,142.3,643.2,146,643.2,152z"/>
<path class="st1" d="M639.2,153.7c0,2-0.9,4-2,4.5c-1.1,0.5-2-0.8-2-2.8s0.9-4,2-4.5C638.3,150.4,639.2,151.7,639.2,153.7z"/>
<path class="st3" d="M643.2,222c0,6-2.7,12-6,13.4c-3.3,1.3-5.9-2.4-5.9-8.3s2.6-11.9,5.9-13.3C640.5,212.3,643.2,216,643.2,222z"/>
<path class="st1" d="M639.2,223.7c0,2-0.9,4-2,4.5c-1.1,0.5-2-0.8-2-2.8s0.9-4,2-4.5C638.3,220.5,639.2,221.7,639.2,223.7z"/>
<path class="st4" d="M643.2,292.1c0,6-2.7,12-6,13.4c-3.3,1.3-5.9-2.4-5.9-8.3s2.6-11.9,5.9-13.3
	C640.5,282.4,643.2,286.1,643.2,292.1z"/>
<path class="st1" d="M639.2,293.8c0,2-0.9,4-2,4.5c-1.1,0.5-2-0.8-2-2.8s0.9-4,2-4.5C638.3,290.5,639.2,291.8,639.2,293.8z"/>
<path class="st0" d="M547.2,294.7c0.1-0.6,0.7-0.9,1.3-0.8c0.4,0.1,0.6,0.4,0.8,0.7l2.3,7.4l3.2,10.2c0.2,0.5-0.1,1.1-0.6,1.3
	l-6.1,2.5l-4.9,2c-0.5,0.2-1.2,0-1.4-0.6c-0.1-0.2-0.1-0.4-0.1-0.7l2.9-11.8L547.2,294.7z"/>
<path class="st5" d="M506.6,282.4l9.3-8.6c0,0,21.1-14.5,13.7-22.5c-7.4-8-22.2,10.6-22.2,10.6l-9.2,6L506.6,282.4z"/>
<path class="st6" d="M383.5,286.4l-5.4,7.5c0,0-7.6,29.1,30.8,30.7c0,0,49,23.7,61.1,8.9s45.6-50.7,45.6-50.7l-19.7-20l-40.1,41.9
	l-38.9-19.5C416.8,285.1,396.8,274.1,383.5,286.4z"/>
<polygon class="st0" points="357.9,424.7 307.1,611.8 313.5,613.1 366.9,424.7 "/>
<polygon class="st0" points="419.5,424.7 470.3,611.8 463.9,613.1 410.5,424.7 "/>
<polygon class="st0" points="384.8,420.8 393.3,612.1 400.7,612.4 391.2,418.3 "/>
<path class="st0" d="M408.5,417.8c0,4.9-13.3,10.1-30.7,11.7c-18.7,1.8-34.9-1.1-34.9-6.6s16.2-10.9,34.9-12.1
	C395.2,409.8,408.5,413,408.5,417.8z"/>
<path class="st6" d="M427,385l12.8,9c0,0,55,39.7,49.9,55s-33.3,76.8-33.3,76.8l-35.8-11.5l40.9-65.3l-21.8-20.5l-11.5-28.2L427,385
	z"/>
<path class="st6" d="M377.1,362c0,0-25.6,39.7-10.2,51.2c15.4,11.5,58.9,56.3,58.9,56.3l9,20.5l32,103.7l39.7-20.5l-35.8-80.6
	c0,0-3.8-29.4-16.6-46.1S436,405.5,436,405.5l3.8-11.5l-22.9-36.7L377.1,362z"/>
<path class="st6" d="M446.7,518.4l-23-7c0,0-24.8-1-23.6,7.9s21.8,67.8,28.2,64s1.3-21.8,1.3-21.8L446.7,518.4z"/>
<polygon class="st5" points="395.7,237.2 382.9,251.3 403.4,284.6 412.3,259 "/>
<path class="st3" d="M407.8,286.5l-22.7-37.6l-8,1.8v12.8l-2.6,107.5l42.2-6.4C416.8,364.5,419.3,295.4,407.8,286.5z"/>
<path class="st6" d="M396.3,285.2l-19.2-34.6l-16.6,7.7l-29.4,120.3l-17.9,34.6c0,0,58.9,29.4,72.9,0s15.4-94.7,15.4-94.7
	L396.3,285.2z"/>
<path class="st6" d="M368.2,263.4l-7.7-5.1c0,0-29.4-6.4-29.4,32c0,0-21.8,49.9-6.4,61.4s52.5,43.5,52.5,43.5l19.2-20.5l-43.5-38.4
	l17.9-39.7C370.7,296.7,381,276.2,368.2,263.4z"/>
<path class="st5" d="M377.1,386.3l9,9c0,0,15.4,20.5,23,12.8s-11.5-21.8-11.5-21.8l-6.4-9L377.1,386.3z"/>
<path class="st6" d="M406.3,274.9l22,53.8c0,0,9,26.9,9,37.1V394l-24.3-32C412.9,362,399.7,278.6,406.3,274.9z"/>
<path class="st6" d="M476.3,583.4c0,0-6.3,25,2,27.1s78.1,3.9,78.2-7.9S511.1,581,511.1,581l-16.8-10.8L476.3,583.4z"/>
<circle class="st5" cx="411.7" cy="237.8" r="23"/>
<path class="st6" d="M436.2,233.7c0,0,4.5-19.5,0-24v3c0,0-3-10.5-9-7.5c0,0-7.5-6-9-3c-8.8-8-48-0.5-29,41.4c0,0,3.5-12.9,3.5-8.4
	c0,0,9-9,10.5-12S430.2,239.7,436.2,233.7z"/>
</svg>
