<?xml version="1.0" encoding="utf-8"?>
<!-- Generator: Adobe Illustrator 24.0.1, SVG Export Plug-In . SVG Version: 6.00 Build 0)  -->
<svg version="1.1" id="Layer_1" xmlns="http://www.w3.org/2000/svg" xmlns:xlink="http://www.w3.org/1999/xlink" x="0px" y="0px"
	 viewBox="0 0 300 123" style="enable-background:new 0 0 300 123;" xml:space="preserve">
<style type="text/css">
	.st0{fill:#EC1C24;}
</style>
<g>
	<g>
		<polygon class="st0" points="47.7,119.4 46.4,106.1 43.8,106.1 42.6,119.3 41.2,106.1 38.6,106.1 40.5,122.8 44.1,122.8 45,113.9 
			46,122.8 49.5,122.8 51.4,106.1 49.1,106.1 		"/>
		<polygon class="st0" points="56.4,122.8 63.5,122.8 63.5,120.4 59,120.4 59,115.5 62.6,115.5 62.6,113.1 59,113.1 59,108.4 
			63.5,108.4 63.5,106.1 56.4,106.1 		"/>
		<path class="st0" d="M80,105.9c-2.6,0-3.9,1.5-3.9,4.2v8.7c0,2.7,1.3,4.2,3.9,4.2c2.6,0,3.9-1.5,3.9-4.2v-2.2h-2.5v2.4
			c0,1.2-0.5,1.6-1.4,1.6s-1.4-0.4-1.4-1.6v-9c0-1.2,0.5-1.7,1.4-1.7s1.4,0.5,1.4,1.7v1.8h2.5v-1.6C83.9,107.4,82.6,105.9,80,105.9z
			"/>
		<path class="st0" d="M97.1,118.2c0-1.7-0.4-3-1.7-3.6c1.2-0.6,1.7-1.7,1.7-3.4v-1.3c0-2.6-1.2-3.9-3.9-3.9h-4v16.8h2.6V116h0.9
			c1.2,0,1.7,0.6,1.7,2.1v2.6c0,1.4,0.1,1.6,0.2,2.1h2.7c-0.3-0.6-0.3-1.2-0.3-2V118.2z M94.5,111.8c0,1.3-0.6,1.8-1.6,1.8h-1v-5.1
			h1.3c0.9,0,1.3,0.5,1.3,1.7V111.8z"/>
		<polygon class="st0" points="102.5,122.8 109.7,122.8 109.7,120.4 105.2,120.4 105.2,115.5 108.8,115.5 108.8,113.1 105.2,113.1 
			105.2,108.4 109.7,108.4 109.7,106.1 102.5,106.1 		"/>
		<path class="st0" d="M117,106.1l-2.7,16.8h2.4l0.5-3h3.2l0.5,3h2.7l-2.7-16.8H117z M117.6,117.5l1.3-8.5l1.3,8.5H117.6z"/>
		<polygon class="st0" points="127.7,108.4 130.5,108.4 130.5,122.8 133.1,122.8 133.1,108.4 135.9,108.4 135.9,106.1 127.7,106.1 
					"/>
		<polygon class="st0" points="140.7,122.8 147.9,122.8 147.9,120.4 143.3,120.4 143.3,115.5 146.9,115.5 146.9,113.1 143.3,113.1 
			143.3,108.4 147.9,108.4 147.9,106.1 140.7,106.1 		"/>
		<path class="st0" d="M164.3,105.9c-2.6,0-3.9,1.5-3.9,4.2v8.7c0,2.7,1.3,4.2,3.9,4.2c2.6,0,3.9-1.5,3.9-4.2v-5.3h-3.7v2.4h1.2v3.1
			c0,1.2-0.5,1.6-1.4,1.6c-0.8,0-1.4-0.4-1.4-1.6v-9c0-1.2,0.5-1.7,1.4-1.7c0.8,0,1.4,0.5,1.4,1.7v1.8h2.5v-1.6
			C168.3,107.4,166.9,105.9,164.3,105.9z"/>
		<path class="st0" d="M177.4,105.9c-2.6,0-4,1.5-4,4.2v8.7c0,2.7,1.4,4.2,4,4.2s4-1.5,4-4.2v-8.7
			C181.4,107.4,180,105.9,177.4,105.9z M178.8,119c0,1.2-0.5,1.7-1.4,1.7c-0.8,0-1.4-0.5-1.4-1.7v-9c0-1.2,0.5-1.7,1.4-1.7
			c0.8,0,1.4,0.5,1.4,1.7V119z"/>
		<path class="st0" d="M190.6,105.9c-2.6,0-4,1.5-4,4.2v8.7c0,2.7,1.4,4.2,4,4.2s4-1.5,4-4.2v-8.7
			C194.6,107.4,193.2,105.9,190.6,105.9z M192,119c0,1.2-0.5,1.7-1.4,1.7c-0.8,0-1.4-0.5-1.4-1.7v-9c0-1.2,0.5-1.7,1.4-1.7
			c0.8,0,1.4,0.5,1.4,1.7V119z"/>
		<path class="st0" d="M204.2,106.1H200v16.8h4.2c2.6,0,3.9-1.5,3.9-4.1v-8.5C208.1,107.5,206.8,106.1,204.2,106.1z M205.5,118.8
			c0,1.2-0.5,1.6-1.3,1.6h-1.5v-12h1.5c0.8,0,1.3,0.4,1.3,1.6V118.8z"/>
		<polygon class="st0" points="220.1,108.4 222.9,108.4 222.9,122.8 225.5,122.8 225.5,108.4 228.2,108.4 228.2,106.1 220.1,106.1 
					"/>
		<path class="st0" d="M241,118.2c0-1.7-0.4-3-1.7-3.6c1.2-0.6,1.7-1.7,1.7-3.4v-1.3c0-2.6-1.2-3.9-3.9-3.9h-4v16.8h2.6V116h0.9
			c1.2,0,1.7,0.6,1.7,2.1v2.6c0,1.4,0.1,1.6,0.2,2.1h2.7c-0.3-0.6-0.3-1.2-0.3-2V118.2z M238.3,111.8c0,1.3-0.6,1.8-1.6,1.8h-1v-5.1
			h1.3c0.9,0,1.3,0.5,1.3,1.7V111.8z"/>
		<path class="st0" d="M248.4,106.1l-2.7,16.8h2.4l0.5-3h3.2l0.5,3h2.7l-2.7-16.8H248.4z M248.9,117.5l1.3-8.5l1.3,8.5H248.9z"/>
		<path class="st0" d="M264,106.1h-4.2v16.8h4.2c2.6,0,3.9-1.5,3.9-4.1v-8.5C267.9,107.5,266.6,106.1,264,106.1z M265.3,118.8
			c0,1.2-0.5,1.6-1.3,1.6h-1.5v-12h1.5c0.8,0,1.3,0.4,1.3,1.6V118.8z"/>
		<polygon class="st0" points="273.3,122.8 280.5,122.8 280.5,120.4 275.9,120.4 275.9,115.5 279.6,115.5 279.6,113.1 275.9,113.1 
			275.9,108.4 280.5,108.4 280.5,106.1 273.3,106.1 		"/>
		<polygon class="st0" points="103.7,68.4 103.7,43.8 107.7,43.8 107.7,39.7 95.5,39.7 95.5,43.8 99.5,43.8 99.5,68.4 		"/>
		<path class="st0" d="M118.6,68.4h4.3l-3.8-13.3c1.9-0.9,2.9-3,2.9-7.3c0-5.4-1.9-8-6-8h-6.4v28.6h4.2V56.2h1.5L118.6,68.4z
			 M113.9,43.7h1.8c1.5,0,2.1,0.7,2.1,4.5c0,3.6-0.6,4.5-2.1,4.5h-1.8V43.7z"/>
		<path class="st0" d="M128.5,39.7l-5.1,28.6h4.2l0.9-6.8h4.9l1,6.8h4.3l-5.1-28.6H128.5z M129.1,58.2l1.9-13.9h0.1l1.9,13.9H129.1z
			"/>
		<path class="st0" d="M147.2,39.7h-6.5v28.6h6.5c4.3,0,6.7-2.9,6.7-8.1V47.9C153.9,42.6,151.5,39.7,147.2,39.7z M149.7,60.1
			c0,3.4-0.8,4.3-2.5,4.3h-2.3V43.7h2.3c1.7,0,2.5,1,2.5,4.3V60.1z"/>
		<polygon class="st0" points="167.8,64.4 161.1,64.4 161.1,55.2 166.1,55.2 166.1,51.7 161.1,51.7 161.1,43.8 167.4,43.8 
			167.4,39.7 156.8,39.7 156.8,68.4 167.8,68.4 		"/>
		<polygon class="st0" points="180.5,64.3 174.2,64.3 174.2,39.7 170.1,39.7 170.1,68.4 180.5,68.4 		"/>
		<path class="st0" d="M186.4,39.7l-5.1,28.6h4.2l0.9-6.8h4.9l1,6.8h4.3l-5.1-28.6H186.4z M186.9,58.2l1.9-13.9h0.1l1.9,13.9H186.9z
			"/>
		<path class="st0" d="M207.8,53.4L207.8,53.4c1.9-0.9,2.8-2.6,2.8-6.1c0-4.7-1.9-7.6-6.3-7.6h-5.7v28.6h6.4c5.1,0,6.3-3,6.3-8.3
			C211.3,56.4,210.1,54.1,207.8,53.4z M202.6,43.7h1.8c1.6,0,2.2,0.8,2.2,3.9c0,3-0.4,4.3-2.1,4.3h-1.9V43.7z M204.9,64.4h-2.2v-9
			h2.2c1.6,0,2.2,0.7,2.2,4.5C207.1,63.6,206.5,64.4,204.9,64.4z"/>
		<path class="st0" d="M281.9,77.4c0-0.8-0.5-1.1-1.6-1.1h-1.7v4.1h0.9v-1.8h0.6l1,1.8h1l-1.2-1.9C281.6,78.4,281.9,78,281.9,77.4z
			 M280.2,78.1h-0.7v-1.4h0.7c0.5,0,0.7,0.2,0.7,0.7S280.7,78.1,280.2,78.1z"/>
		<path class="st0" d="M280.1,75c-2.1,0-3.2,1-3.2,2.4v1.8c0,1.5,1.1,2.4,3.2,2.4c2.1,0,3.2-0.9,3.2-2.4v-1.8
			C283.3,76,282.2,75,280.1,75z M282.6,79.2c0,1.3-0.8,2-2.5,2c-1.7,0-2.5-0.7-2.5-2v-1.8c0-1.3,0.8-2,2.5-2c1.7,0,2.5,0.7,2.5,2
			V79.2z"/>
		<polygon class="st0" points="41.4,34.7 32.1,43.8 19.4,41.3 25.2,53 18.8,64.3 31.7,62.4 40.5,72 42.7,59.1 54.5,53.7 43,47.6 		
			"/>
	</g>
	<path class="st0" d="M300,43.8c0-1.4-0.2-3.3-0.4-4.4c-0.2-0.8-0.4-1.6-0.6-2.4c-0.8-2.5-2-4.9-3.5-7c-0.8-1.1-1.6-2.2-2.6-3.1
		c-2.2-2.1-4.7-3.7-7.5-4.8c-1.8-0.7-3.6-1.3-5.5-1.5c-0.5-0.1-3.8-0.4-4.8-0.3c-0.5,0-1,0-1.5,0c-3.5,0-164.3,0.3-168.4,0.3
		c-0.4,0-0.8,0-1.2,0.1c-1,0.1-2,0.2-3,0.3c-0.5,0-1,0.1-1.5,0.1c-1.2,0.1-2.3,0.5-3.5,0.8c-3.2,0.9-6.2,2.4-8.9,4.3
		c-2.3,1.6-4.3,3.3-6,5.5c-2.3,3-4.1,6.2-5.3,9.8c-0.5,1.6-1,3.3-1.1,5c-0.1,0.7-0.1,1.4-0.2,2.2c-0.1,1.1-0.2,2.3-0.2,3.5
		c0,0.7,0,1.3,0,2c0,0.3,0,0.5,0,0.8c0.1,1.1,0.2,2.3,0.3,3.4c0.1,0.5,0.1,1.1,0.2,1.6c0.2,1.4,0.6,2.8,1.1,4.1
		c1.1,3.2,2.7,6,4.6,8.7c0.9,1.2,1.9,2.5,3,3.5c2.7,2.5,5.8,4.5,9.2,5.9c2.1,0.9,4.2,1.6,6.4,1.9c1.3,0.2,2.6,0.3,3.9,0.4
		c0.6,0.1,1.1,0.1,1.7,0.1c3.7,0,86.4-0.5,90.2-0.6c3.7-0.1,7.4-0.1,11-0.2c4.7-0.1,9.4-0.5,14-0.8c1.9-0.1,3.8-0.3,5.7-0.4
		c1.4-0.1,2.8-0.2,4.2-0.4c1.3-0.1,2.7-0.3,4-0.4c1.3-0.1,2.6-0.2,3.9-0.4c1.4-0.1,2.9-0.3,4.3-0.4c2-0.1,3.9-0.3,5.9-0.4
		c0.5,0,1.1-0.1,1.6-0.1c0.5,0,1.1-0.2,1.4-0.6c0.5-0.5,0.9-1.1,1.1-1.9c0.3-1.3,0.3-2.5-0.3-3.8c-0.4-0.9-1.1-1.4-1.9-1.8
		c-0.2-0.1-0.4-0.1-0.7-0.1c-1.7,0.1-3.3,0.2-5,0.3c-1.6,0.1-3.2,0.2-4.8,0.4c-1.4,0.1-2.8,0.2-4.2,0.4c-1.4,0.1-2.7,0.3-4.1,0.4
		c-1.3,0.1-2.7,0.3-4,0.4c-1.5,0.1-3.1,0.3-4.6,0.4c-2.3,0.2-4.5,0.3-6.8,0.4c-2.9,0.2-5.8,0.4-8.7,0.5c-4.4,0.1-8.8,0.2-13.2,0.3
		c-4.2,0.1-8.3,0.1-12.5,0.2c-4.5,0.1-71.1,0.3-76.2,0.3c-0.5,0-1.1,0-1.6-0.1c-0.7-0.1-1.5-0.2-2.2-0.2c-0.3,0-0.6,0-0.8-0.1
		c-1.1-0.2-2.3-0.5-3.3-0.9c-3-1.1-5.6-2.8-8-4.9c-0.2-0.2-0.4-0.4-0.6-0.6c-2.6-2.9-4.5-6.2-5.4-10c-0.1-0.6-0.3-1.2-0.3-1.8
		c0-0.6-0.1-1.3-0.2-1.9c-0.1-0.6-0.1-1.3-0.1-1.9c0-0.5,0-0.9,0-1.4c-0.1-2,0.3-3.9,0.4-5.9c0-0.2,0.1-0.4,0.1-0.6
		c0.3-0.9,0.5-1.9,0.8-2.8c0.8-2,1.8-3.9,3-5.6c1.2-1.7,2.6-3.2,4.3-4.4c2.1-1.5,4.4-2.8,6.9-3.5c1.3-0.4,2.6-0.7,4-0.7
		c0.2,0,0.4,0,0.6-0.1c0.9-0.1,1.9-0.2,2.8-0.2c6.6,0,164.5-0.3,169.9-0.3c1.3,0,4,0.4,4.1,0.4c2.3,0.5,4.4,1.6,6.4,3
		c0.5,0.4,1,0.8,1.5,1.3c1.7,1.8,3,3.9,3.7,6.3c0.2,0.8,0.5,1.5,0.6,2.3c0.1,0.7,0.1,1.4,0.2,2.2c0,0.3-0.1,30.8-0.2,32
		c0,0.1,0,0.2,0,0.2c-0.7,2.9-2.1,5.4-4,7.6c-0.2,0.2-0.3,0.3-0.5,0.5c-1.3,1.2-2.8,2.2-4.4,2.9c-1.3,0.6-2.6,1-4,1.2
		c-1.4,0.2-2.8,0.2-4.2,0.2c-6.3,0-227.9,0.4-227.9,0.4c-1,0-2,0-2.9,0c-0.1,0-0.2,0-0.2,0l-0.7,0c-1.5,0-3-0.1-4.5-0.2
		c-1.6-0.2-3.1-0.5-4.6-0.8c-2.8-0.7-5.4-1.7-7.9-3.1c-4.2-2.3-7.8-5.4-10.6-9.3c-1-1.4-2-2.8-2.8-4.3c-1.3-2.6-2.4-5.3-3.1-8.1
		c-0.6-2.6-0.9-15.5-0.7-16.7c0.2-1.6,0.4-3.2,0.8-4.7c0.9-3.6,2.3-6.9,4.3-9.9c1.4-2.2,3-4.2,4.9-6c2.1-2,4.5-3.7,7-5.2
		c0.2-0.1,0.3-0.2,0.5-0.3c2.5-1.2,5.1-2.4,7.9-3c1.4-0.3,2.7-0.6,4.1-0.7c1.6-0.2,3.3-0.2,4.9-0.2c2.8,0,5.6,0,8.3,0.1
		c6.1,0,89-0.6,91.7-0.7c4.9-0.1,9.9-0.2,14.8-0.3c3.1-0.1,6.1-0.1,9.2-0.2c3.7-0.1,7.5-0.3,11.2-0.4c2-0.1,4-0.1,5.9-0.2
		c1.3,0,2.7-0.1,4-0.2c2.7-0.1,5.4-0.3,8.1-0.4c2.3-0.1,4.6-0.2,6.9-0.4c0.9,0,1.8-0.1,2.8-0.2c2.1-0.1,4.2-0.3,6.2-0.4
		c1.6-0.1,3.2-0.2,4.8-0.3c2.1-0.2,4.3-0.4,6.4-0.6c1.8-0.2,3.6-0.3,5.4-0.5c2.2-0.3,4.4-0.6,6.6-0.8c2.7-0.3,5.3-0.8,8-1.4
		c1.9-0.4,3.8-1,5.6-1.8c0.5-0.2,0.9-0.6,1.2-1.1c0.4-0.7,0.4-1.4,0.3-2.1C250,3,249.5,2,248.7,1c-0.5-0.5-1-0.9-1.7-1
		c-0.7-0.1-1.3-0.1-2,0.2c-1.1,0.4-2.2,0.8-3.3,1c-2.4,0.6-4.9,1-7.3,1.4c-3,0.5-6.1,0.9-9.1,1.2c-2,0.2-4.1,0.4-6.2,0.5
		c-3,0.3-6.1,0.4-9.1,0.6c-1,0.1-1.9,0.1-2.9,0.2c-2.1,0.1-4.2,0.3-6.3,0.4c-2.4,0.1-4.9,0.2-7.3,0.4c-1.2,0.1-2.4,0.1-3.6,0.2
		c-1.9,0.1-3.9,0.2-5.8,0.3c-1.9,0.1-3.8,0.1-5.6,0.2c-3.9,0.1-7.8,0.3-11.7,0.4c-3,0.1-6,0.2-9,0.3c-4.3,0.1-8.7,0.2-13,0.3
		c-2.6,0.1-5.2,0.1-7.8,0.2c-3.6,0.1-35.6,0.5-41.2,0.5c-6.6,0-36.3,0.1-44.6,0.1c-3.1,0-6.3-0.1-9.4,0c-1.5,0-3,0.1-4.5,0.2
		c-2.1,0.2-4.1,0.6-6.1,1.1c-3.3,0.8-6.5,2.1-9.5,3.8c-4.8,2.7-9,6.1-12.4,10.4c-1.6,2-3,4-4.2,6.3c-1.8,3.4-3.2,7-4,10.7
		c-0.5,2.3-0.8,4.6-0.9,7c0,0.6-0.2,5-0.1,6.1c0.1,0.9,0.1,1.9,0.1,2.8c0.1,1.8,0.2,3.5,0.5,5.2C1,64.7,1.7,67.4,2.7,70
		c0.9,2.2,1.8,4.4,3,6.4c0.7,1.3,1.6,2.5,2.4,3.7c1.5,2,3.1,3.9,4.9,5.6c1.6,1.5,3.3,2.9,5.1,4.1c1.2,0.8,2.4,1.6,3.7,2.3
		c3.4,1.7,6.9,3.1,10.6,3.9c2.1,0.4,4.2,0.8,6.3,0.9c0.5,0,235.9-0.3,235.9-0.3l0,0c0.3,0,0.6,0,0.9,0c0.6,0,1.3-0.1,1.9-0.1
		c1.2-0.2,2.5-0.2,3.7-0.4c4.5-1,8.3-3.2,11.7-6.3c1.3-1.2,2.4-2.7,3.3-4.2c1-1.6,1.9-3.3,2.5-5.1c0.6-1.8,1.1-3.6,1-5.5
		C299.8,74.4,300,44.3,300,43.8z"/>
</g>
</svg>
