<svg width="93" height="30" viewBox="0 0 93 30" fill="none" xmlns="http://www.w3.org/2000/svg">
<path d="M14.6814 29.0629L14.2827 25.8206H13.4851L13.117 29.0385L12.6876 25.8206H11.8901L12.4729 29.8918H13.5771L13.8532 27.7221L14.16 29.8918H15.2335L15.8164 25.8206H15.1108L14.6814 29.0629Z" fill="#EC1C24"/>
<path d="M17.3501 29.8918H19.5279V29.3067H18.1476V28.1121H19.2519V27.5271H18.1476V26.3813H19.5279V25.8206H17.3501V29.8918Z" fill="#EC1C24"/>
<path d="M24.5891 25.7717C23.7916 25.7717 23.3928 26.1374 23.3928 26.7956V28.9166C23.3928 29.5748 23.7916 29.9405 24.5891 29.9405C25.3866 29.9405 25.7854 29.5748 25.7854 28.9166V28.3802H25.0185V28.9653C25.0185 29.2579 24.8652 29.3554 24.5891 29.3554C24.313 29.3554 24.1597 29.2579 24.1597 28.9653V26.7713C24.1597 26.4787 24.313 26.3568 24.5891 26.3568C24.8652 26.3568 25.0185 26.4787 25.0185 26.7713V27.2101H25.7854V26.82C25.7854 26.1374 25.3866 25.7717 24.5891 25.7717Z" fill="#EC1C24"/>
<path d="M29.8344 28.7703C29.8344 28.3559 29.7117 28.039 29.3129 27.8927C29.681 27.7464 29.8344 27.4783 29.8344 27.0638V26.7469C29.8344 26.1131 29.4663 25.7961 28.6381 25.7961H27.4111V29.8918H28.2087V28.234H28.4847C28.8528 28.234 29.0062 28.3803 29.0062 28.746V29.3798C29.0062 29.7211 29.0369 29.7699 29.0675 29.8918H29.8957C29.8037 29.7455 29.8037 29.5992 29.8037 29.4042V28.7703H29.8344ZM29.0369 27.2101C29.0369 27.527 28.8528 27.6489 28.5461 27.6489H28.2393V26.4056H28.6381C28.9142 26.4056 29.0369 26.5275 29.0369 26.82V27.2101Z" fill="#EC1C24"/>
<path d="M31.4908 29.8918H33.6993V29.3067H32.319V28.1121H33.4232V27.5271H32.319V26.3813H33.6993V25.8206H31.4908V29.8918Z" fill="#EC1C24"/>
<path d="M35.9385 25.8206L35.1103 29.9162H35.8465L35.9999 29.1848H36.9814L37.1348 29.9162H37.963L37.1348 25.8206H35.9385ZM36.1226 28.5997L36.5213 26.5275L36.9201 28.5997H36.1226Z" fill="#EC1C24"/>
<path d="M39.2206 26.3813H40.0795V29.8918H40.877V26.3813H41.7359V25.8206H39.2206V26.3813Z" fill="#EC1C24"/>
<path d="M43.2083 29.8918H45.4168V29.3067H44.0058V28.1121H45.11V27.5271H44.0058V26.3813H45.4168V25.8206H43.2083V29.8918Z" fill="#EC1C24"/>
<path d="M50.4473 25.7717C49.6498 25.7717 49.251 26.1374 49.251 26.7956V28.9166C49.251 29.5748 49.6498 29.9405 50.4473 29.9405C51.2449 29.9405 51.6436 29.5748 51.6436 28.9166V27.6245H50.5087V28.2096H50.8768V28.9653C50.8768 29.2579 50.7234 29.3554 50.4473 29.3554C50.2019 29.3554 50.0179 29.2579 50.0179 28.9653V26.7713C50.0179 26.4787 50.1713 26.3568 50.4473 26.3568C50.6927 26.3568 50.8768 26.4787 50.8768 26.7713V27.2101H51.6436V26.82C51.6743 26.1374 51.2449 25.7717 50.4473 25.7717Z" fill="#EC1C24"/>
<path d="M54.4656 25.7717C53.6681 25.7717 53.2386 26.1374 53.2386 26.7956V28.9166C53.2386 29.5748 53.6681 29.9405 54.4656 29.9405C55.2631 29.9405 55.6926 29.5748 55.6926 28.9166V26.7956C55.6926 26.1374 55.2631 25.7717 54.4656 25.7717ZM54.895 28.9653C54.895 29.2579 54.7417 29.3798 54.4656 29.3798C54.2202 29.3798 54.0362 29.2579 54.0362 28.9653V26.7713C54.0362 26.4787 54.1895 26.3568 54.4656 26.3568C54.711 26.3568 54.895 26.4787 54.895 26.7713V28.9653Z" fill="#EC1C24"/>
<path d="M58.5146 25.7717C57.7171 25.7717 57.2876 26.1374 57.2876 26.7956V28.9166C57.2876 29.5748 57.7171 29.9405 58.5146 29.9405C59.3121 29.9405 59.7416 29.5748 59.7416 28.9166V26.7956C59.7416 26.1374 59.3121 25.7717 58.5146 25.7717ZM58.944 28.9653C58.944 29.2579 58.7907 29.3798 58.5146 29.3798C58.2692 29.3798 58.0852 29.2579 58.0852 28.9653V26.7713C58.0852 26.4787 58.2385 26.3568 58.5146 26.3568C58.76 26.3568 58.944 26.4787 58.944 26.7713V28.9653Z" fill="#EC1C24"/>
<path d="M62.6863 25.8206H61.398V29.9162H62.6863C63.4838 29.9162 63.8826 29.5505 63.8826 28.9166V26.8445C63.8826 26.1619 63.4838 25.8206 62.6863 25.8206ZM63.0851 28.9166C63.0851 29.2092 62.9317 29.3067 62.6863 29.3067H62.2262V26.3813H62.6863C62.9317 26.3813 63.0851 26.4788 63.0851 26.7713V28.9166Z" fill="#EC1C24"/>
<path d="M67.5634 26.3813H68.4223V29.8918H69.2198V26.3813H70.048V25.8206H67.5634V26.3813Z" fill="#EC1C24"/>
<path d="M73.9743 28.7703C73.9743 28.3559 73.8516 28.039 73.4528 27.8927C73.8209 27.7464 73.9743 27.4783 73.9743 27.0638V26.7469C73.9743 26.1131 73.6062 25.7961 72.778 25.7961H71.5511V29.8918H72.3486V28.234H72.6246C72.9927 28.234 73.1461 28.3803 73.1461 28.746V29.3798C73.1461 29.7211 73.1768 29.7699 73.2075 29.8918H74.0356C73.9436 29.7455 73.9436 29.5992 73.9436 29.4042V28.7703H73.9743ZM73.1461 27.2101C73.1461 27.527 72.9621 27.6489 72.6553 27.6489H72.3486V26.4056H72.7473C73.0234 26.4056 73.1461 26.5275 73.1461 26.82V27.2101V27.2101Z" fill="#EC1C24"/>
<path d="M76.2442 25.8206L75.416 29.9162H76.1522L76.3055 29.1848H77.2871L77.4405 29.9162H78.2687L77.4405 25.8206H76.2442ZM76.3976 28.5997L76.7963 26.5275L77.1951 28.5997H76.3976Z" fill="#EC1C24"/>
<path d="M81.0293 25.8206H79.741V29.9162H81.0293C81.8269 29.9162 82.2256 29.5505 82.2256 28.9166V26.8445C82.2256 26.1619 81.8269 25.8206 81.0293 25.8206ZM81.4281 28.9166C81.4281 29.2092 81.2747 29.3067 81.0293 29.3067H80.5692V26.3813H81.0293C81.2747 26.3813 81.4281 26.4788 81.4281 26.7713V28.9166Z" fill="#EC1C24"/>
<path d="M83.882 29.8918H86.0906V29.3067H84.6795V28.1121H85.8145V27.5271H84.6795V26.3813H86.0906V25.8206H83.882V29.8918Z" fill="#EC1C24"/>
<path d="M31.8589 16.63V10.6328H33.0858V9.6333H29.3436V10.6328H30.5706V16.63H31.8589Z" fill="#EC1C24"/>
<path d="M36.4293 16.63H37.7483L36.5827 13.3876C37.1655 13.1682 37.4722 12.6563 37.4722 11.608C37.4722 10.2916 36.8894 9.65771 35.6318 9.65771H33.6686V16.63H34.957V13.6558H35.4171L36.4293 16.63ZM34.9876 10.6085H35.5398C35.9999 10.6085 36.1839 10.7791 36.1839 11.7055C36.1839 12.5831 35.9999 12.8026 35.5398 12.8026H34.9876V10.6085Z" fill="#EC1C24"/>
<path d="M39.466 9.6333L37.9017 16.6056H39.19L39.466 14.9478H40.9691L41.2758 16.6056H42.5948L41.0304 9.6333H39.466V9.6333ZM39.6501 14.1433L40.2329 10.7547H40.2636L40.8464 14.1433H39.6501Z" fill="#EC1C24"/>
<path d="M45.2021 9.6333H43.2083V16.6056H45.2021C46.521 16.6056 47.2572 15.8986 47.2572 14.6309V11.6323C47.2572 10.3403 46.521 9.6333 45.2021 9.6333ZM45.9689 14.6065C45.9689 15.4354 45.7235 15.6548 45.2021 15.6548H44.4966V10.6084H45.2021C45.7235 10.6084 45.9689 10.8522 45.9689 11.6567V14.6065Z" fill="#EC1C24"/>
<path d="M51.5209 15.6548H49.4658V13.412H50.9995V12.5587H49.4658V10.6328H51.3982V9.6333H48.1468V16.63H51.5209V15.6548Z" fill="#EC1C24"/>
<path d="M55.4165 15.6304H53.4841V9.6333H52.2264V16.63H55.4165V15.6304Z" fill="#EC1C24"/>
<path d="M57.2263 9.6333L55.6619 16.6056H56.9502L57.2263 14.9478H58.7293L59.0361 16.6056H60.3551L58.7907 9.6333H57.2263V9.6333ZM57.3797 14.1433L57.9625 10.7547H57.9931L58.576 14.1433H57.3797Z" fill="#EC1C24"/>
<path d="M63.7905 12.9732C64.3734 12.7538 64.6494 12.3393 64.6494 11.4861C64.6494 10.3403 64.0666 9.6333 62.717 9.6333H60.9685V16.6056H62.9317C64.496 16.6056 64.8641 15.8742 64.8641 14.5822C64.8641 13.7045 64.496 13.1438 63.7905 12.9732ZM62.1955 10.6084H62.7476C63.2384 10.6084 63.4225 10.8035 63.4225 11.5592C63.4225 12.2906 63.2998 12.6075 62.7783 12.6075H62.1955V10.6084ZM62.901 15.6548H62.2262V13.4607H62.901C63.3918 13.4607 63.5758 13.6314 63.5758 14.5578C63.5758 15.4598 63.3918 15.6548 62.901 15.6548Z" fill="#EC1C24"/>
<path d="M86.52 18.8236C86.52 18.6286 86.3666 18.5554 86.0292 18.5554H85.5078V19.5549H85.7838V19.1161H85.9679L86.2746 19.5549H86.5813L86.2133 19.0917C86.428 19.0674 86.52 18.9699 86.52 18.8236ZM85.9985 18.9942H85.7838V18.6529H85.9985C86.1519 18.6529 86.2133 18.7017 86.2133 18.8236C86.2133 18.9455 86.1519 18.9942 85.9985 18.9942Z" fill="#EC1C24"/>
<path d="M85.9679 18.2388C85.3237 18.2388 84.9863 18.4826 84.9863 18.8239V19.2627C84.9863 19.6283 85.3237 19.8478 85.9679 19.8478C86.612 19.8478 86.9494 19.6283 86.9494 19.2627V18.8239C86.9494 18.4826 86.612 18.2388 85.9679 18.2388ZM86.7347 19.2627C86.7347 19.5796 86.4893 19.7502 85.9679 19.7502C85.4464 19.7502 85.201 19.5796 85.201 19.2627V18.8239C85.201 18.5069 85.4464 18.3363 85.9679 18.3363C86.4893 18.3363 86.7347 18.5069 86.7347 18.8239V19.2627Z" fill="#EC1C24"/>
<path d="M12.749 8.41431L9.89627 10.6328L6.00066 10.0233L7.77976 12.8756L5.81662 15.6304L9.77357 15.1672L12.4729 17.5075L13.1477 14.3627L16.7672 13.0462L13.2397 11.5591L12.749 8.41431Z" fill="#EC1C24"/>
<path d="M92.072 10.6326C92.072 10.2913 92.0106 9.8281 91.9493 9.55994C91.888 9.36491 91.8266 9.16988 91.7653 8.97485C91.5199 8.36539 91.1518 7.7803 90.6917 7.26835C90.4463 7.00019 90.2009 6.73202 89.8941 6.51261C89.2193 6.00066 88.4525 5.6106 87.5936 5.34244C87.0415 5.17179 86.4893 5.02552 85.9065 4.97676C85.7531 4.95238 84.7409 4.87925 84.4342 4.90362C84.2808 4.90362 84.1274 4.90362 83.9741 4.90362C82.9005 4.90362 33.5766 4.97676 32.319 4.97676C32.1963 4.97676 32.0736 4.97676 31.9509 5.00114C31.6442 5.02552 31.3374 5.0499 31.0307 5.07427C30.8773 5.07427 30.7239 5.09865 30.5706 5.09865C30.2025 5.12303 29.8651 5.22055 29.497 5.29368C28.5154 5.51309 27.5952 5.87877 26.767 6.34196C26.0615 6.73202 25.448 7.14646 24.9265 7.68279C24.221 8.41414 23.6689 9.19426 23.3008 10.0719C23.1475 10.4619 22.9941 10.8764 22.9634 11.2908C22.9327 11.4615 22.9327 11.6321 22.9021 11.8272C22.8714 12.0953 22.8407 12.3879 22.8407 12.6804C22.8407 12.8511 22.8407 12.9973 22.8407 13.168C22.8407 13.2411 22.8407 13.2899 22.8407 13.363C22.8714 13.6312 22.9021 13.9237 22.9327 14.1919C22.9634 14.3138 22.9634 14.46 22.9941 14.5819C23.0554 14.9232 23.1781 15.2645 23.3315 15.5815C23.6689 16.3616 24.1597 17.0442 24.7425 17.7024C25.0186 17.9949 25.3253 18.3119 25.6627 18.5556C26.4909 19.1651 27.4418 19.6527 28.4847 19.994C29.1289 20.2134 29.773 20.384 30.4479 20.4572C30.8466 20.5059 31.2454 20.5303 31.6442 20.5547C31.8282 20.5791 31.9816 20.5791 32.1656 20.5791C33.3006 20.5791 58.668 20.4572 59.8336 20.4328C60.9685 20.4084 62.1035 20.4084 63.2077 20.384C64.6494 20.3597 66.0911 20.2622 67.5021 20.189C68.0849 20.1646 68.6677 20.1159 69.2505 20.0915C69.68 20.0671 70.1094 20.0427 70.5388 19.994C70.9376 19.9696 71.367 19.9209 71.7658 19.8965C72.1645 19.8721 72.5633 19.8477 72.9621 19.799C73.3915 19.7746 73.8516 19.7258 74.2811 19.7014C74.8945 19.6771 75.4773 19.6283 76.0908 19.6039C76.2442 19.6039 76.4282 19.5795 76.5816 19.5795C76.735 19.5795 76.919 19.5308 77.011 19.4333C77.1644 19.3114 77.2871 19.1651 77.3485 18.9701C77.4405 18.6532 77.4405 18.3606 77.2564 18.0437C77.1337 17.8243 76.919 17.7024 76.6736 17.6049C76.6123 17.5805 76.5509 17.5805 76.4589 17.5805C75.9375 17.6049 75.4467 17.6293 74.9252 17.6536C74.4344 17.678 73.9436 17.7024 73.4529 17.7512C73.0234 17.7755 72.594 17.7999 72.1645 17.8487C71.7351 17.873 71.3363 17.9218 70.9069 17.9462C70.5081 17.9706 70.0787 18.0193 69.6799 18.0437C69.2198 18.0681 68.7291 18.1168 68.2689 18.1412C67.5634 18.19 66.8886 18.2143 66.1831 18.2387C65.2936 18.2875 64.404 18.3362 63.5145 18.3606C62.1648 18.385 60.8152 18.4094 59.4655 18.4338C58.1772 18.4581 56.9196 18.4581 55.6312 18.4825C54.2509 18.5069 33.822 18.5556 32.2576 18.5556C32.1043 18.5556 31.9202 18.5556 31.7669 18.5313C31.5521 18.5069 31.3067 18.4825 31.092 18.4825C31 18.4825 30.908 18.4825 30.8466 18.4581C30.5092 18.4094 30.1411 18.3362 29.8344 18.2387C28.9142 17.9706 28.1166 17.5561 27.3805 17.0442C27.3191 16.9954 27.2578 16.9467 27.1964 16.8979C26.3989 16.1909 25.8161 15.3864 25.54 14.46C25.5093 14.3138 25.448 14.1675 25.448 14.0212C25.448 13.875 25.4173 13.7043 25.3867 13.558C25.356 13.4118 25.356 13.2411 25.356 13.0948C25.356 12.9729 25.356 12.8754 25.356 12.7535C25.3253 12.266 25.448 11.8028 25.4787 11.3152C25.4787 11.2664 25.5093 11.2177 25.5093 11.1689C25.6014 10.9495 25.6627 10.7057 25.7547 10.4863C26.0001 9.99875 26.3069 9.53556 26.675 9.12112C27.0431 8.70669 27.4725 8.34101 27.9939 8.04847C28.6381 7.68279 29.3436 7.36586 30.1105 7.19521C30.5092 7.0977 30.908 7.02456 31.3374 7.02456C31.3988 7.02456 31.4601 7.02456 31.5215 7.00019C31.7975 6.97581 32.1043 6.95143 32.3803 6.95143C34.4048 6.95143 82.8391 6.87829 84.4955 6.87829C84.8943 6.87829 85.7225 6.97581 85.7531 6.97581C86.4586 7.0977 87.1028 7.36586 87.7163 7.70716C87.8696 7.80468 88.023 7.90219 88.1764 8.02409C88.6978 8.4629 89.0966 8.97485 89.3113 9.55994C89.3727 9.75497 89.4647 9.92562 89.4954 10.1206C89.5261 10.2913 89.526 10.4619 89.5567 10.657C89.5567 10.7301 89.5261 18.1656 89.4954 18.4581C89.4954 18.4825 89.4954 18.5069 89.4954 18.5069C89.2807 19.2139 88.8512 19.8233 88.2684 20.3597C88.2071 20.4084 88.1764 20.4328 88.115 20.4816C87.7163 20.7741 87.2562 21.0179 86.7654 21.1885C86.3666 21.3348 85.9679 21.4323 85.5384 21.4811C85.109 21.5298 84.6796 21.5298 84.2501 21.5298C82.3177 21.5298 14.344 21.6274 14.344 21.6274C14.0373 21.6274 13.7305 21.6274 13.4545 21.6274C13.4238 21.6274 13.3931 21.6274 13.3931 21.6274H13.1784C12.7183 21.6274 12.2582 21.603 11.7981 21.5786C11.3073 21.5298 10.8472 21.4567 10.3871 21.3836C9.52818 21.2129 8.73066 20.9691 7.9638 20.6278C6.6755 20.0671 5.57123 19.3114 4.71236 18.3606C4.40562 18.0193 4.09888 17.678 3.85349 17.3123C3.45472 16.6785 3.11731 16.0203 2.90259 15.3377C2.71855 14.7038 2.62652 11.559 2.68787 11.2664C2.74922 10.8764 2.81057 10.4863 2.93326 10.1206C3.20933 9.24302 3.63877 8.43852 4.25225 7.70716C4.68168 7.17084 5.17247 6.68326 5.75527 6.24445C6.39943 5.75688 7.13561 5.34244 7.90246 4.97676C7.9638 4.95238 7.99448 4.928 8.05583 4.90362C8.82268 4.61108 9.6202 4.31854 10.4791 4.17227C10.9085 4.09913 11.3073 4.02599 11.7367 4.00162C12.2275 3.95286 12.749 3.95286 13.2397 3.95286C14.0986 3.95286 14.9575 3.95286 15.7857 3.97724C17.6568 3.97724 43.0856 3.83097 43.9138 3.80659C45.4168 3.78221 46.9505 3.75783 48.4535 3.73345C49.4044 3.70907 50.3246 3.70907 51.2755 3.68469C52.4105 3.66032 53.5761 3.61156 54.711 3.58718C55.3245 3.5628 55.938 3.5628 56.5208 3.53842C56.9196 3.53842 57.349 3.51404 57.7478 3.48966C58.576 3.46529 59.4041 3.41653 60.2323 3.39215C60.9378 3.36777 61.6434 3.34339 62.3489 3.29464C62.6249 3.29464 62.901 3.27026 63.2077 3.24588C63.8519 3.2215 64.496 3.17274 65.1095 3.14836C65.6003 3.12399 66.0911 3.09961 66.5819 3.07523C67.226 3.02647 67.9009 2.97771 68.545 2.92896C69.0971 2.8802 69.6493 2.85582 70.2014 2.80706C70.8762 2.73393 71.5511 2.66079 72.2259 2.61203C73.0541 2.5389 73.8516 2.41701 74.6798 2.27073C75.2626 2.17322 75.8454 2.02695 76.3976 1.83192C76.5509 1.78316 76.6736 1.68565 76.7657 1.56375C76.8883 1.3931 76.8883 1.22245 76.8577 1.0518C76.735 0.686124 76.5816 0.442338 76.3362 0.198552C76.1828 0.0766589 76.0295 -0.0208556 75.8148 -0.0452342C75.6 -0.0696128 75.416 -0.0696128 75.2013 0.00352304C74.8639 0.101038 74.5264 0.198552 74.189 0.247309C73.4529 0.393581 72.686 0.491095 71.9498 0.58861C71.0296 0.710503 70.0787 0.808017 69.1585 0.881153C68.545 0.92991 67.9009 0.978668 67.2567 1.00305C66.3365 1.07618 65.3856 1.10056 64.4654 1.14932C64.1586 1.1737 63.8826 1.1737 63.5758 1.19808C62.9317 1.22245 62.2875 1.27121 61.6434 1.29559C60.9072 1.31997 60.1403 1.34435 59.4041 1.3931C59.0361 1.41748 58.668 1.41748 58.2999 1.44186C57.7171 1.46624 57.1036 1.49062 56.5208 1.515C55.938 1.53938 55.3552 1.53938 54.803 1.56375C53.6068 1.58813 52.4105 1.63689 51.2142 1.66127C50.294 1.68565 49.3737 1.71003 48.4535 1.7344C47.1345 1.75878 45.7849 1.78316 44.4659 1.80754C43.6684 1.83192 42.8708 1.83192 42.0733 1.8563C40.9691 1.88068 31.1534 1.97819 29.4356 1.97819C27.4111 1.97819 18.301 2.00257 15.755 2.00257C14.8041 2.00257 13.8225 1.97819 12.8716 2.00257C12.4115 2.00257 11.9514 2.02695 11.4913 2.05133C10.8472 2.10008 10.2337 2.1976 9.6202 2.31949C8.60796 2.51452 7.62639 2.83144 6.70617 3.24588C5.23382 3.9041 3.94551 4.73297 2.90259 5.78125C2.41181 6.26883 1.98237 6.7564 1.61428 7.31711C1.06215 8.14598 0.632712 9.02361 0.38732 9.92562C0.23395 10.4863 0.141928 11.047 0.111254 11.6321C0.111254 11.7784 0.0499057 12.8511 0.0805797 13.1192C0.111254 13.3386 0.111254 13.5824 0.111254 13.8018C0.141928 14.2406 0.172602 14.6551 0.264624 15.0695C0.356646 15.7277 0.571364 16.386 0.878104 17.0198C1.15417 17.5561 1.43024 18.0925 1.79833 18.58C2.01304 18.8969 2.28911 19.1895 2.5345 19.482C2.99461 19.9696 3.4854 20.4328 4.03753 20.8472C4.52831 21.2129 5.04977 21.5542 5.6019 21.8468C5.96999 22.0418 6.33808 22.2368 6.73684 22.4075C7.77976 22.8219 8.85335 23.1632 9.98829 23.3582C10.6324 23.4557 11.2766 23.5533 11.9208 23.5776C12.0741 23.5776 84.2808 23.5045 84.2808 23.5045C84.3728 23.5045 84.4648 23.5045 84.5569 23.5045C84.7409 23.5045 84.9556 23.4801 85.1397 23.4801C85.5077 23.4314 85.9065 23.4314 86.2746 23.3826C87.6549 23.1388 88.8205 22.6025 89.8635 21.8468C90.2622 21.5542 90.5996 21.1885 90.8757 20.8229C91.1824 20.4328 91.4585 20.0184 91.6426 19.5795C91.8266 19.1407 91.98 18.7019 91.9493 18.2387C92.0106 18.0925 92.072 10.7545 92.072 10.6326Z" fill="#EC1C24"/>
</svg>
